IKResults
version=1
nRows=22
nColumns=24
inDegrees=yes

Units are S.I. units (second, meters, Newtons, ...)
If the header above contains a line with 'inDegrees', this indicates whether rotational values are in degrees (yes) or radians (no).

endheader
time	pelvis_tilt	pelvis_list	pelvis_rotation	pelvis_tx	pelvis_ty	pelvis_tz	hip_flexion_r	hip_adduction_r	hip_rotation_r	knee_angle_r	ankle_angle_r	subtalar_angle_r	mtp_angle_r	hip_flexion_l	hip_adduction_l	hip_rotation_l	knee_angle_l	ankle_angle_l	subtalar_angle_l	mtp_angle_l	lumbar_extension	lumbar_bending	lumbar_rotation
      0.00000000	     12.27446294	      1.29150090	   -178.43275485	      0.20474065	      0.85092064	     -1.19708087	     16.19266764	    -11.52078644	    -35.60789037	    -10.01267527	     -1.69074863	      6.59015021	      0.00000000	     16.46791353	    -13.54646772	    -33.84610215	     -9.27602478	     -0.45197640	     17.21889786	      0.00000000	      4.88330650	      1.91918414	     -1.27258377
      0.00500000	     12.28557999	      1.25785731	   -178.38540498	      0.20495664	      0.85087481	     -1.19728488	     16.16010394	    -11.53180492	    -35.51898739	     -9.88412734	     -1.62546525	      6.63558911	      0.00000000	     16.53925783	    -13.53232827	    -33.82476227	     -9.34612571	     -0.46262782	     17.22481262	      0.00000000	      4.87823708	      1.84248150	     -1.29430795
      0.01000000	     12.24723353	      1.20852667	   -178.42529733	      0.20476036	      0.85085422	     -1.19726505	     16.12519796	    -11.58146301	    -35.47073845	     -9.90428064	     -1.56063641	      6.65129093	      0.00000000	     16.44841747	    -13.47609375	    -33.90768334	     -9.30311297	     -0.42855863	     17.20577802	      0.00000000	      4.90272723	      1.92311800	     -0.96007330
      0.01500000	     12.28463953	      1.24713113	   -178.41908759	      0.20495693	      0.85089907	     -1.19747234	     16.18792042	    -11.53166412	    -35.51723629	     -9.92445636	     -1.54102388	      6.56285822	      0.00000000	     16.51247957	    -13.55192569	    -33.92166437	     -9.35094072	     -0.45303799	     17.30040490	      0.00000000	      4.93119367	      1.94424717	     -0.95860031
      0.02000000	     12.24834050	      1.25602167	   -178.47807488	      0.20475232	      0.85097643	     -1.19741088	     16.18317113	    -11.52797586	    -35.63307035	    -10.01133684	     -1.67163655	      6.48060621	      0.00000000	     16.43614578	    -13.56452175	    -34.01171453	     -9.33332425	     -0.45662644	     17.30103585	      0.00000000	      4.93022014	      1.99057275	     -0.88370060
      0.02500000	     12.20014147	      1.24648501	   -178.49365065	      0.20470436	      0.85099563	     -1.19747685	     16.12805106	    -11.52616493	    -35.62681878	     -9.99599146	     -1.72809844	      6.41106739	      0.00000000	     16.36783068	    -13.56364629	    -34.13203227	     -9.28914043	     -0.44170197	     17.44154279	      0.00000000	      4.88866078	      1.98672825	     -0.88197717
      0.03000000	     12.22351895	      1.17805880	   -178.49205063	      0.20476380	      0.85088434	     -1.19753608	     16.13492953	    -11.58798140	    -35.49380797	     -9.93124293	     -1.58951861	      6.43613306	      0.00000000	     16.40546678	    -13.50624652	    -34.20081998	     -9.33000151	     -0.42484018	     17.49968877	      0.00000000	      4.92075553	      1.90577479	     -0.87219663
      0.03500000	     12.22036918	      1.17393732	   -178.49498497	      0.20476281	      0.85087223	     -1.19760258	     16.13165069	    -11.58631381	    -35.49943321	     -9.93194331	     -1.59260602	      6.43200594	      0.00000000	     16.40287372	    -13.50446118	    -34.20765788	     -9.33222401	     -0.42625724	     17.49916793	      0.00000000	      4.93042324	      1.90116719	     -0.87506389
      0.04000000	     12.26598729	      1.19318601	   -178.49210072	      0.20498124	      0.85087810	     -1.19776072	     16.20195726	    -11.55596356	    -35.50793765	     -9.94080614	     -1.61543589	      6.33329638	      0.00000000	     16.47805845	    -13.53720634	    -34.25114113	     -9.33817334	     -0.51001103	     17.50657488	      0.00000000	      4.95996481	      1.90546735	     -0.88204576
      0.04500000	     12.20279699	      1.18950745	   -178.52972868	      0.20477848	      0.85089802	     -1.19771404	     16.13925504	    -11.55986880	    -35.49628729	     -9.96224121	     -1.57765659	      6.29519627	      0.00000000	     16.37135722	    -13.53333557	    -34.33346197	     -9.30589256	     -0.49367043	     17.49029371	      0.00000000	      4.92268312	      1.91963741	     -0.83406253
      0.05000000	     12.19924342	      1.18925390	   -178.53147118	      0.20480408	      0.85090537	     -1.19780707	     16.13848745	    -11.55451403	    -35.50126684	     -9.96323174	     -1.57462253	      6.29051529	      0.00000000	     16.36931258	    -13.53718046	    -34.33683968	     -9.30277810	     -0.49310707	     17.48957175	      0.00000000	      4.92803313	      1.90843205	     -0.83796332
      0.05500000	     12.19407916	      1.15842780	   -178.50032860	      0.20489540	      0.85093764	     -1.19792400	     16.13163840	    -11.58456689	    -35.51904626	     -9.96118949	     -1.57966035	      6.21911828	      0.00000000	     16.37988594	    -13.50465620	    -34.37205501	     -9.30431798	     -0.52609569	     17.51022477	      0.00000000	      4.93702024	      1.88221903	     -0.89155416
      0.06000000	     12.22228079	      1.18060322	   -178.48602612	      0.20498636	      0.85095869	     -1.19804125	     16.18881932	    -11.56127279	    -35.61892907	    -10.02108297	     -1.73101450	      6.06882945	      0.00000000	     16.43193709	    -13.53312125	    -34.38597913	     -9.32583740	     -0.52868409	     17.55960793	      0.00000000	      4.97347369	      1.89583820	     -0.91398764
      0.06500000	     12.21575473	      1.14723176	   -178.48273878	      0.20499362	      0.85091570	     -1.19808508	     16.16288611	    -11.58738884	    -35.47666215	     -9.96968520	     -1.60850793	      6.08700153	      0.00000000	     16.42116769	    -13.49965155	    -34.41642244	     -9.32480973	     -0.52599692	     17.57830088	      0.00000000	      4.97777524	      1.85314834	     -0.91773899
      0.07000000	     12.20701646	      1.16020429	   -178.49918801	      0.20498582	      0.85093161	     -1.19811348	     16.17204341	    -11.57812071	    -35.50352271	    -10.00460065	     -1.60629841	      6.05913246	      0.00000000	     16.39805046	    -13.51434732	    -34.45291051	     -9.29890824	     -0.53953010	     17.56781985	      0.00000000	      4.98084782	      1.86658205	     -0.88442513
      0.07500000	     12.19012979	      1.17958898	   -178.52492473	      0.20497893	      0.85098232	     -1.19814801	     16.19210817	    -11.56348459	    -35.55142728	    -10.08952757	     -1.64444488	      6.01631697	      0.00000000	     16.37226089	    -13.54495285	    -34.46538535	     -9.29229509	     -0.55828498	     17.56769514	      0.00000000	      4.97016127	      1.89188490	     -0.85738073
      0.08000000	     12.19081331	      1.17033869	   -178.50208520	      0.20500204	      0.85092577	     -1.19819953	     16.16091593	    -11.56275565	    -35.50922261	    -10.01369366	     -1.59745049	      6.02788333	      0.00000000	     16.38887724	    -13.54104294	    -34.49634607	     -9.30883583	     -0.57620007	     17.56073348	      0.00000000	      4.98201616	      1.85952473	     -0.87418714
      0.08500000	     12.18726172	      1.17255837	   -178.49164481	      0.20508292	      0.85092526	     -1.19830164	     16.16014740	    -11.55691091	    -35.50481476	    -10.01716177	     -1.59723690	      6.02829407	      0.00000000	     16.39602961	    -13.54595362	    -34.49984148	     -9.30377966	     -0.57610778	     17.56062443	      0.00000000	      4.97803686	      1.83965441	     -0.87726879
      0.09000000	     12.18790158	      1.16516488	   -178.47209129	      0.20511999	      0.85099363	     -1.19835748	     16.18732379	    -11.57450368	    -35.64417597	    -10.06468408	     -1.66886480	      5.92686766	      0.00000000	     16.40909552	    -13.53911504	    -34.54150373	     -9.30487184	     -0.61141238	     17.57840361	      0.00000000	      4.96885194	      1.83527947	     -0.97370000
      0.09500000	     12.18805651	      1.18319607	   -178.44760797	      0.20517354	      0.85100700	     -1.19844616	     16.18321020	    -11.55159674	    -35.62501646	    -10.06231850	     -1.64434568	      5.90287774	      0.00000000	     16.42408551	    -13.55891179	    -34.52503509	     -9.30241801	     -0.62679293	     17.60723261	      0.00000000	      4.97983727	      1.83168923	     -0.99827839
      0.10000000	     12.17058376	      1.17947817	   -178.44249695	      0.20518100	      0.85099903	     -1.19851126	     16.14172953	    -11.54485769	    -35.48741985	    -10.03182421	     -1.52188368	      5.89571977	      0.00000000	     16.40845483	    -13.56016209	    -34.54430829	     -9.30414352	     -0.62633809	     17.61724415	      0.00000000	      4.96729579	      1.82351219	     -1.03754085
      0.10500000	     12.16582375	      1.18055130	   -178.44316732	      0.20520706	      0.85099382	     -1.19856522	     16.13997866	    -11.54119991	    -35.48908755	    -10.03567300	     -1.52364744	      5.89261527	      0.00000000	     16.40345644	    -13.56397019	    -34.54546433	     -9.30360459	     -0.62842452	     17.61698260	      0.00000000	      4.97710363	      1.81699413	     -1.03711974
